#!OML:ASF H:\ManfredETheater\Project 1\Capture day 1\Session 1\subject.ASF
:FULLY-SPECIFIED
:DEGREES
46
root 18.5276 13.9058 26.2764 -162.426 -67.7193 -177.102
lowerback 42.7774 -2.75702 1.8814
upperback 11.8002 -4.77906 0.0745169
thorax -7.05397 -3.05614 1.15931
lowerneck -0.631024 -6.54127 -10.8321
upperneck -2.70711 -8.82852 3.3184
head -0.0942121 -4.4211 2.86897
rclavicle 2.38542e-014 2.46493e-014
rhumerus -36.9482 3.85645 -90.1751
rradius 50.4826
rwrist -0.117293
rhand -19.6809 -6.59168
rfingers 7.12502
rthumb 6.64782 -36.4673
lclavicle 2.38542e-014 2.46493e-014
lhumerus -13.6124 2.90927 82.8388
lradius 92.9238
lwrist 8.08627
lhand -31.3244 -11.0647
lfingers 7.12502
lthumb -4.59635 18.8654
rfemur -70.6911 -16.1135 2.78739
rtibia 45.7466
rfoot 1.31558 -15.915
rtoes -29.5965
lfemur -31.7719 -4.19094 13.6965
ltibia 65.6895
lfoot -13.6509 -38.9771
ltoes 9.58705
47
root 18.4289 13.9132 25.7859 -162.608 -68.7666 -176.938
lowerback 43.2689 -2.70847 1.9855
upperback 12.2607 -4.76415 -0.00121436
thorax -6.68443 -3.07531 1.01656
lowerneck 0.18279 -6.56881 -11.2302
upperneck -2.94746 -8.95421 3.55368
head -0.27332 -4.4787 3.05784
rclavicle -9.54166e-015 1.06946e-013
rhumerus -37.3171 5.046 -91.2362
rradius 50.5041
rwrist 0.284191
rhand -19.0882 -5.76592
rfingers 7.12502
rthumb 7.21998 -35.6227
lclavicle -9.54166e-015 1.06946e-013
lhumerus -14.2096 4.68595 81.9692
lradius 93.5969
lwrist 8.47701
lhand -31.3556 -10.5374
lfingers 7.12502
lthumb -4.62653 19.392
rfemur -71.1778 -16.2832 3.68926
rtibia 48.0575
rfoot 3.05926 -15.0001
rtoes -29.8203
lfemur -31.7005 -5.76652 15.4551
ltibia 64.5926
lfoot -6.75656 -38.5727
ltoes 7.89694
48
root 18.3334 13.9241 25.2942 -162.654 -69.8332 -176.898
lowerback 43.8638 -2.67817 2.07468
upperback 12.6906 -4.7751 -0.112442
thorax -6.37615 -3.1019 0.860078
lowerneck 0.836142 -6.60093 -11.6439
upperneck -3.11417 -9.06949 3.84676
head -0.398283 -4.53267 3.26322
rclavicle 6.2816e-014 -1.94809e-014
rhumerus -37.6266 6.34785 -92.358
rradius 50.4964
rwrist 0.820826
rhand -18.4131 -4.86191
rfingers 7.12502
rthumb 7.87161 -34.6954
lclavicle 6.2816e-014 -1.94809e-014
lhumerus -14.7901 6.52152 80.9589
lradius 94.1895
lwrist 8.85246
lhand -31.3513 -9.92549
lfingers 7.12502
lthumb -4.62239 20.0041
rfemur -71.9758 -16.5506 4.85478
rtibia 51.0381
rfoot 4.44226 -14.1947
rtoes -29.4098
lfemur -32.1208 -7.08232 17.0655
ltibia 63.8813
lfoot -0.157755 -37.7868
ltoes 5.28731
49
root 18.239 13.9377 24.8038 -162.661 -70.9233 -176.904
lowerback 44.5888 -2.63252 2.21932
upperback 13.0929 -4.74339 -0.255269
thorax -6.13241 -3.10355 0.631299
lowerneck 1.39572 -6.69757 -11.8833
upperneck -3.26844 -9.2588 4.1359
head -0.504727 -4.62564 3.43162
rclavicle 6.52014e-014 7.95139e-016
rhumerus -37.8881 7.60889 -93.5014
rradius 50.5005
rwrist 1.43034
rhand -17.6362 -3.90365
rfingers 7.12502
rthumb 8.62141 -33.7076
lclavicle 6.52014e-014 7.95139e-016
lhumerus -15.2965 8.20336 79.8444
lradius 94.7012
lwrist 9.26699
lhand -31.3444 -9.2164
lfingers 7.12502
lthumb -4.61569 20.7133
rfemur -72.9542 -16.8863 6.23942
rtibia 54.4511
rfoot 5.12476 -13.7091
rtoes -28.3482
lfemur -32.9818 -8.06382 18.5332
ltibia 63.652
lfoot 5.58381 -36.8805
ltoes 1.82905
50
root 18.1438 13.9531 24.3175 -162.659 -72.035 -176.913
lowerback 45.4037 -2.58683 2.4207
upperback 13.4761 -4.68552 -0.416053
thorax -5.92888 -3.08814 0.348101
lowerneck 1.88259 -6.84127 -11.9858
upperneck -3.42852 -9.49865 4.42906
head -0.601513 -4.74546 3.57389
rclavicle 5.24792e-014 2.8625e-014
rhumerus -38.0954 8.9146 -94.6417
rradius 50.5463
rwrist 2.0277
rhand -16.8342 -2.92724
rfingers 7.12502
rthumb 9.39531 -32.6978
lclavicle 5.24792e-014 2.8625e-014
lhumerus -15.7165 9.75901 78.6651
lradius 95.1426
lwrist 9.71525
lhand -31.3508 -8.43864
lfingers 7.12502
lthumb -4.62186 21.4909
rfemur -74.0073 -17.2738 7.80186
rtibia 58.0558
rfoot 4.94685 -13.5528
rtoes -26.9321
lfemur -34.2444 -8.63581 19.8408
ltibia 63.9961
lfoot 9.79949 -36.1153
ltoes -2.5054
51
root 18.0462 13.9708 23.8367 -162.735 -73.1512 -176.845
lowerback 46.2926 -2.51896 2.68881
upperback 13.8504 -4.57154 -0.585583
thorax -5.7461 -3.04239 0.001186
lowerneck 2.33331 -7.05256 -11.8772
upperneck -3.62156 -9.81708 4.69454
head -0.706673 -4.90637 3.66729
rclavicle -3.18055e-015 1.15295e-014
rhumerus -38.2595 10.2349 -95.738
rradius 50.6922
rwrist 2.52299
rhand -16.0677 -1.98646
rfingers 7.12502
rthumb 10.1349 -31.7224
lclavicle -3.18055e-015 1.15295e-014
lhumerus -16.0076 11.1157 77.4756
lradius 95.5145
lwrist 10.1951
lhand -31.3947 -7.6165
lfingers 7.12502
lthumb -4.66429 22.3121
rfemur -75.0196 -17.6916 9.53548
rtibia 61.627
rfoot 3.89684 -13.7028
rtoes -25.2836
lfemur -35.8148 -8.73293 20.9574
ltibia 64.9585
lfoot 12.178 -35.5085
ltoes -6.82463
52
root 17.9455 13.9916 23.3621 -162.989 -74.2639 -176.582
lowerback 47.2088 -2.43152 2.97598
upperback 14.224 -4.42175 -0.72371
thorax -5.55588 -2.979 -0.337397
lowerneck 2.74177 -7.29725 -11.6732
upperneck -3.83885 -10.1697 4.94458
head -0.814531 -5.08581 3.7376
rclavicle -2.94201e-014 -6.10269e-014
rhumerus -38.3588 11.6651 -96.7305
rradius 50.936
rwrist 2.89541
rhand -15.334 -1.10009
rfingers 7.12502
rthumb 10.8426 -30.8002
lclavicle -2.94201e-014 -6.10269e-014
lhumerus -16.1878 12.3649 76.345
lradius 95.8478
lwrist 10.6839
lhand -31.5116 -6.75875
lfingers 7.12502
lthumb -4.77717 23.1674
rfemur -75.8943 -18.1178 11.4365
rtibia 64.9767
rfoot 2.05269 -14.0972
rtoes -23.7167
lfemur -37.6406 -8.28738 21.8608
ltibia 66.5384
lfoot 12.6829 -34.9277
ltoes -10.4691
53
root 17.8426 14.0188 22.8939 -163.478 -75.3682 -176.075
lowerback 49.1592 -2.37404 3.29734
upperback 13.5905 -4.20986 -0.828774
thorax -5.37252 -2.88927 -0.655169
lowerneck 3.12758 -7.58154 -11.3321
upperneck -4.06546 -10.5636 5.16482
head -0.926499 -5.28786 3.77286
rclavicle 2.3059e-014 4.77083e-014
rhumerus -38.3799 13.1332 -97.5877
rradius 51.2584
rwrist 3.10933
rhand -14.5798 -0.245301
rfingers 7.12502
rthumb 11.57 -29.9059
lclavicle 2.3059e-014 4.77083e-014
lhumerus -16.2433 13.4592 75.3132
lradius 96.1499
lwrist 11.1455
lhand -31.7162 -5.87804
lfingers 7.12502
lthumb -4.97475 24.0436
rfemur -76.5626 -18.5557 13.4645
rtibia 67.9728
rfoot -0.235179 -14.5873
rtoes -22.4787
lfemur -39.6623 -7.28542 22.4954
ltibia 68.6632
lfoot 11.2911 -34.0625
ltoes -13.8883
54
root 17.7379 14.052 22.4317 -164.228 -76.4503 -175.294
lowerback 50.1913 -2.20823 3.53474
upperback 13.8799 -3.96341 -0.866469
thorax -5.18457 -2.78463 -0.890731
lowerneck 3.47522 -7.87687 -10.9677
upperneck -4.27852 -10.9635 5.36778
head -1.02956 -5.49429 3.79727
rclavicle -2.54444e-014 -3.97569e-014
rhumerus -38.2945 14.656 -98.2236
rradius 51.623
rwrist 3.16381
rhand -13.6426 0.635677
rfingers 7.12502
rthumb 12.4737 -28.9721
lclavicle -2.54444e-014 -3.97569e-014
lhumerus -16.1982 14.4836 74.4556
lradius 96.4433
lwrist 11.5406
lhand -31.9781 -4.99137
lfingers 7.12502
lthumb -5.22755 24.9241
rfemur -76.9902 -19.0183 15.6018
rtibia 70.472
rfoot -2.64474 -15.0717
rtoes -21.6639
lfemur -41.8255 -5.72462 22.8112
ltibia 71.1485
lfoot 9.45405 -32.7482
ltoes -14.4425
55
root 17.632 14.0916 21.9749 -165.353 -77.5059 -174.118
lowerback 51.243 -1.99056 3.69531
upperback 14.1404 -3.67962 -0.822634
thorax -5.0079 -2.66883 -1.01809
lowerneck 3.76401 -8.17033 -10.6217
upperneck -4.44082 -11.3521 5.56151
head -1.10675 -5.69619 3.81827
rclavicle 5.48646e-014 6.20208e-014
rhumerus -38.076 16.1783 -98.606
rradius 51.9646
rwrist 3.1093
rhand -12.5392 1.57575
rfingers 7.12502
rthumb 13.5374 -27.9642
lclavicle 5.48646e-014 6.20208e-014
lhumerus -16.084 15.4519 73.7752
lradius 96.7465
lwrist 11.8427
lhand -32.2945 -4.11993
lfingers 7.12502
lthumb -5.53304 25.7878
rfemur -77.2182 -19.5146 17.8384
rtibia 72.57
rfoot -4.90947 -15.4149
rtoes -21.3034
lfemur -44.1452 -3.65132 22.7812
ltibia 73.9493
lfoot 7.64318 -30.9463
ltoes -12.2593
56
root 17.533 14.1917 21.5105 -166.899 -78.5203 -172.487
lowerback 52.2971 -1.71511 3.75659
upperback 14.3602 -3.36291 -0.704787
thorax -4.85663 -2.54475 -1.03309
lowerneck 4.00959 -8.44657 -10.3325
upperneck -4.54866 -11.7125 5.76833
head -1.15735 -5.88453 3.85067
rclavicle -9.38264e-014 -3.35946e-014
rhumerus -37.6967 17.6105 -98.725
rradius 52.2068
rwrist 2.99057
rhand -11.3223 2.55816
rfingers 7.12502
rthumb 14.71 -26.9
lclavicle -9.38264e-014 -3.35946e-014
lhumerus -15.9332 16.3678 73.2525
lradius 97.0816
lwrist 12.0681
lhand -32.5988 -3.28493
lfingers 7.12502
lthumb -5.82687 26.615
rfemur -77.0051 -19.9194 20.1608
rtibia 74.0991
rfoot -7.11263 -15.6964
rtoes -21.3982
lfemur -46.4836 -1.21321 22.2581
ltibia 76.6977
lfoot 6.3409 -28.8305
ltoes -8.12964
57
root 17.4248 14.2435 21.0616 -169.098 -79.4909 -170.175
lowerback 53.3946 -1.47583 3.72118
upperback 14.5039 -3.12146 -0.564188
thorax -4.78292 -2.45939 -0.945976
lowerneck 4.19862 -8.62438 -10.2902
upperneck -4.5616 -11.9436 6.06671
head -1.15782 -6.00756 3.95309
rclavicle 6.99722e-014 -1.98785e-015
rhumerus -37.1896 19.0671 -98.6723
rradius 52.2853
rwrist 2.83395
rhand -9.95713 3.5794
rfingers 7.12502
rthumb 16.0249 -25.7779
lclavicle 6.99722e-014 -1.98785e-015
lhumerus -15.8837 17.4064 72.7625
lradius 97.4931
lwrist 12.2509
lhand -32.8817 -2.49477
lfingers 7.12502
lthumb -6.09998 27.3974
rfemur -76.9686 -20.4932 22.4835
rtibia 75.5817
rfoot -9.02994 -15.5585
rtoes -22.0959
lfemur -49.1286 1.6599 21.4001
ltibia 79.7189
lfoot 5.24511 -27.1409
ltoes -4.0839
58
root 17.315 14.2957 20.6161 -171.957 -80.3998 -167.133
lowerback 54.4465 -1.23575 3.54989
upperback 14.5846 -2.93327 -0.389991
thorax -4.76399 -2.40388 -0.739328
lowerneck 4.36404 -8.69804 -10.492
upperneck -4.50649 -12.044 6.44916
head -1.12275 -6.0641 4.12592
rclavicle -2.22639e-014 3.62782e-015
rhumerus -36.5384 20.4326 -98.433
rradius 52.1642
rwrist 2.67713
rhand -8.56155 4.52607
rfingers 7.12502
rthumb 17.3685 -24.7179
lclavicle -2.22639e-014 3.62782e-015
lhumerus -15.9461 18.5357 72.2984
lradius 97.9868
lwrist 12.4116
lhand -33.0797 -1.81717
lfingers 7.12502
lthumb -6.29117 28.0694
rfemur -76.9649 -21.1259 24.8253
rtibia 76.9389
rfoot -10.6325 -15.01
rtoes -23.2471
lfemur -52.0023 4.7957 20.0734
ltibia 82.709
lfoot 4.1843 -25.8135
ltoes -2.11803
59
root 17.2028 14.3465 20.175 -175.868 -81.2697 -162.985
lowerback 55.4769 -1.05152 3.38402
upperback 14.6009 -2.79851 -0.244017
thorax -4.80868 -2.36826 -0.543186
lowerneck 4.50127 -8.71465 -10.7729
upperneck -4.39142 -12.0666 6.90353
head -1.05977 -6.08221 4.33586
rclavicle 1.1291e-013 5.14852e-014
rhumerus -35.7259 21.4716 -98.077
rradius 51.8244
rwrist 2.56171
rhand -7.18501 5.3122
rfingers 7.12502
rthumb 18.6929 -23.8096
lclavicle 1.1291e-013 5.14852e-014
lhumerus -16.0791 19.5945 71.7889
lradius 98.5648
lwrist 12.6197
lhand -33.199 -1.24734
lfingers 7.12502
lthumb -6.4063 28.6358
rfemur -77.0665 -21.8598 27.201
rtibia 78.3628
rfoot -11.919 -13.9796
rtoes -24.9216
lfemur -55.1285 7.99978 18.3045
ltibia 85.6618
lfoot 3.12268 -24.9862
ltoes -3.10947
